<mxfile host="app.diagrams.net" agent="Mozilla/5.0 (X11; Ubuntu; Linux x86_64; rv:142.0) Gecko/20100101 Firefox/142.0" version="28.2.1">
  <diagram id="R2lEEEUBdFMjLlhIrx00" name="Page-1">
    <mxGraphModel dx="815" dy="456" grid="1" gridSize="10" guides="1" tooltips="1" connect="1" arrows="1" fold="1" page="1" pageScale="1" pageWidth="850" pageHeight="1100" math="0" shadow="0" extFonts="Permanent Marker^https://fonts.googleapis.com/css?family=Permanent+Marker">
      <root>
        <mxCell id="0" />
        <mxCell id="1" parent="0" />
        <mxCell id="4cM1UkZCm5Ez6TQwr9Vs-248" style="edgeStyle=orthogonalEdgeStyle;rounded=0;orthogonalLoop=1;jettySize=auto;html=1;exitX=0.5;exitY=0;exitDx=0;exitDy=0;entryX=0.5;entryY=1;entryDx=0;entryDy=0;endArrow=none;endFill=0;" edge="1" parent="1" source="XrPNCrt0sU9ygLMACBDO-1" target="XrPNCrt0sU9ygLMACBDO-73">
          <mxGeometry relative="1" as="geometry">
            <mxPoint x="115" y="110" as="targetPoint" />
          </mxGeometry>
        </mxCell>
        <mxCell id="4cM1UkZCm5Ez6TQwr9Vs-249" style="edgeStyle=orthogonalEdgeStyle;rounded=0;orthogonalLoop=1;jettySize=auto;html=1;exitX=1;exitY=0.5;exitDx=0;exitDy=0;endArrow=none;endFill=0;entryX=0;entryY=0.5;entryDx=0;entryDy=0;" edge="1" parent="1" source="XrPNCrt0sU9ygLMACBDO-1" target="4cM1UkZCm5Ez6TQwr9Vs-250">
          <mxGeometry relative="1" as="geometry">
            <mxPoint x="270" y="144.8571428571429" as="targetPoint" />
          </mxGeometry>
        </mxCell>
        <mxCell id="4cM1UkZCm5Ez6TQwr9Vs-296" style="edgeStyle=orthogonalEdgeStyle;rounded=0;orthogonalLoop=1;jettySize=auto;html=1;exitX=0.5;exitY=1;exitDx=0;exitDy=0;entryX=0.5;entryY=0;entryDx=0;entryDy=0;endArrow=none;endFill=0;" edge="1" parent="1" source="XrPNCrt0sU9ygLMACBDO-1" target="4cM1UkZCm5Ez6TQwr9Vs-294">
          <mxGeometry relative="1" as="geometry" />
        </mxCell>
        <mxCell id="XrPNCrt0sU9ygLMACBDO-1" value="Cliente" style="rounded=0;whiteSpace=wrap;html=1;" parent="1" vertex="1">
          <mxGeometry x="60" y="120" width="110" height="50" as="geometry" />
        </mxCell>
        <mxCell id="XrPNCrt0sU9ygLMACBDO-73" value="&lt;u&gt;dni&lt;/u&gt;" style="ellipse;whiteSpace=wrap;html=1;" parent="1" vertex="1">
          <mxGeometry x="80" y="60" width="70" height="30" as="geometry" />
        </mxCell>
        <mxCell id="4cM1UkZCm5Ez6TQwr9Vs-129" value="nombre" style="ellipse;whiteSpace=wrap;html=1;" vertex="1" parent="1">
          <mxGeometry x="80" y="30" width="70" height="30" as="geometry" />
        </mxCell>
        <mxCell id="4cM1UkZCm5Ez6TQwr9Vs-130" value="apellido" style="ellipse;whiteSpace=wrap;html=1;" vertex="1" parent="1">
          <mxGeometry x="150" y="30" width="70" height="30" as="geometry" />
        </mxCell>
        <mxCell id="4cM1UkZCm5Ez6TQwr9Vs-272" style="edgeStyle=orthogonalEdgeStyle;rounded=0;orthogonalLoop=1;jettySize=auto;html=1;exitX=1;exitY=0.5;exitDx=0;exitDy=0;entryX=0;entryY=0.5;entryDx=0;entryDy=0;endArrow=none;endFill=0;" edge="1" parent="1" source="4cM1UkZCm5Ez6TQwr9Vs-250" target="4cM1UkZCm5Ez6TQwr9Vs-254">
          <mxGeometry relative="1" as="geometry" />
        </mxCell>
        <mxCell id="4cM1UkZCm5Ez6TQwr9Vs-313" style="edgeStyle=orthogonalEdgeStyle;rounded=0;orthogonalLoop=1;jettySize=auto;html=1;exitX=0.5;exitY=1;exitDx=0;exitDy=0;entryX=0.5;entryY=0;entryDx=0;entryDy=0;endArrow=none;endFill=0;" edge="1" parent="1" source="4cM1UkZCm5Ez6TQwr9Vs-250" target="4cM1UkZCm5Ez6TQwr9Vs-312">
          <mxGeometry relative="1" as="geometry" />
        </mxCell>
        <mxCell id="4cM1UkZCm5Ez6TQwr9Vs-250" value="compra" style="rhombus;whiteSpace=wrap;html=1;" vertex="1" parent="1">
          <mxGeometry x="260" y="120" width="60" height="50" as="geometry" />
        </mxCell>
        <mxCell id="4cM1UkZCm5Ez6TQwr9Vs-251" value="dirección" style="ellipse;whiteSpace=wrap;html=1;" vertex="1" parent="1">
          <mxGeometry x="10" y="30" width="70" height="30" as="geometry" />
        </mxCell>
        <mxCell id="4cM1UkZCm5Ez6TQwr9Vs-252" value="teléfono" style="ellipse;whiteSpace=wrap;html=1;" vertex="1" parent="1">
          <mxGeometry x="10" y="60" width="70" height="30" as="geometry" />
        </mxCell>
        <mxCell id="4cM1UkZCm5Ez6TQwr9Vs-261" style="edgeStyle=orthogonalEdgeStyle;rounded=0;orthogonalLoop=1;jettySize=auto;html=1;entryX=0;entryY=0.5;entryDx=0;entryDy=0;endArrow=none;endFill=0;" edge="1" parent="1" source="4cM1UkZCm5Ez6TQwr9Vs-253" target="4cM1UkZCm5Ez6TQwr9Vs-258">
          <mxGeometry relative="1" as="geometry">
            <Array as="points">
              <mxPoint x="710" y="277" />
            </Array>
          </mxGeometry>
        </mxCell>
        <mxCell id="4cM1UkZCm5Ez6TQwr9Vs-266" style="edgeStyle=orthogonalEdgeStyle;rounded=0;orthogonalLoop=1;jettySize=auto;html=1;entryX=0.5;entryY=1;entryDx=0;entryDy=0;endArrow=none;endFill=0;" edge="1" parent="1" source="4cM1UkZCm5Ez6TQwr9Vs-269" target="4cM1UkZCm5Ez6TQwr9Vs-254">
          <mxGeometry relative="1" as="geometry" />
        </mxCell>
        <mxCell id="4cM1UkZCm5Ez6TQwr9Vs-267" style="edgeStyle=orthogonalEdgeStyle;rounded=0;orthogonalLoop=1;jettySize=auto;html=1;exitX=1;exitY=0.5;exitDx=0;exitDy=0;entryX=0.5;entryY=1;entryDx=0;entryDy=0;endArrow=none;endFill=0;" edge="1" parent="1" source="4cM1UkZCm5Ez6TQwr9Vs-269" target="4cM1UkZCm5Ez6TQwr9Vs-256">
          <mxGeometry relative="1" as="geometry" />
        </mxCell>
        <mxCell id="4cM1UkZCm5Ez6TQwr9Vs-253" value="Vehículo" style="rounded=0;whiteSpace=wrap;html=1;" vertex="1" parent="1">
          <mxGeometry x="500" y="240" width="110" height="50" as="geometry" />
        </mxCell>
        <mxCell id="4cM1UkZCm5Ez6TQwr9Vs-262" style="edgeStyle=orthogonalEdgeStyle;rounded=0;orthogonalLoop=1;jettySize=auto;html=1;exitX=0.5;exitY=0;exitDx=0;exitDy=0;entryX=0.5;entryY=1;entryDx=0;entryDy=0;endArrow=none;endFill=0;" edge="1" parent="1" source="4cM1UkZCm5Ez6TQwr9Vs-254" target="4cM1UkZCm5Ez6TQwr9Vs-259">
          <mxGeometry relative="1" as="geometry" />
        </mxCell>
        <mxCell id="4cM1UkZCm5Ez6TQwr9Vs-276" style="edgeStyle=orthogonalEdgeStyle;rounded=0;orthogonalLoop=1;jettySize=auto;html=1;exitX=0.25;exitY=1;exitDx=0;exitDy=0;endArrow=none;endFill=0;entryX=0.5;entryY=0;entryDx=0;entryDy=0;" edge="1" parent="1" source="4cM1UkZCm5Ez6TQwr9Vs-254" target="4cM1UkZCm5Ez6TQwr9Vs-277">
          <mxGeometry relative="1" as="geometry">
            <mxPoint x="290" y="260" as="targetPoint" />
            <Array as="points">
              <mxPoint x="452" y="260" />
              <mxPoint x="270" y="260" />
            </Array>
          </mxGeometry>
        </mxCell>
        <mxCell id="4cM1UkZCm5Ez6TQwr9Vs-254" value="Vehiculo nuevo" style="rounded=0;whiteSpace=wrap;html=1;" vertex="1" parent="1">
          <mxGeometry x="425" y="120" width="110" height="50" as="geometry" />
        </mxCell>
        <mxCell id="4cM1UkZCm5Ez6TQwr9Vs-265" style="edgeStyle=orthogonalEdgeStyle;rounded=0;orthogonalLoop=1;jettySize=auto;html=1;exitX=0.5;exitY=0;exitDx=0;exitDy=0;entryX=0.5;entryY=1;entryDx=0;entryDy=0;endArrow=none;endFill=0;" edge="1" parent="1" source="4cM1UkZCm5Ez6TQwr9Vs-256" target="4cM1UkZCm5Ez6TQwr9Vs-264">
          <mxGeometry relative="1" as="geometry">
            <mxPoint x="645" y="95" as="targetPoint" />
          </mxGeometry>
        </mxCell>
        <mxCell id="4cM1UkZCm5Ez6TQwr9Vs-256" value="Vehículo usado" style="rounded=0;whiteSpace=wrap;html=1;" vertex="1" parent="1">
          <mxGeometry x="590" y="120" width="110" height="50" as="geometry" />
        </mxCell>
        <mxCell id="4cM1UkZCm5Ez6TQwr9Vs-257" value="marca" style="ellipse;whiteSpace=wrap;html=1;" vertex="1" parent="1">
          <mxGeometry x="650" y="230" width="70" height="30" as="geometry" />
        </mxCell>
        <mxCell id="4cM1UkZCm5Ez6TQwr9Vs-258" value="modelo" style="ellipse;whiteSpace=wrap;html=1;" vertex="1" parent="1">
          <mxGeometry x="650" y="260" width="70" height="30" as="geometry" />
        </mxCell>
        <mxCell id="4cM1UkZCm5Ez6TQwr9Vs-259" value="cilindrada" style="ellipse;whiteSpace=wrap;html=1;" vertex="1" parent="1">
          <mxGeometry x="445" y="65" width="70" height="30" as="geometry" />
        </mxCell>
        <mxCell id="4cM1UkZCm5Ez6TQwr9Vs-260" value="precio" style="ellipse;whiteSpace=wrap;html=1;" vertex="1" parent="1">
          <mxGeometry x="445" y="35" width="70" height="30" as="geometry" />
        </mxCell>
        <mxCell id="4cM1UkZCm5Ez6TQwr9Vs-264" value="&lt;div&gt;&lt;font style=&quot;font-size: 10px;&quot;&gt;precioDe&lt;/font&gt;&lt;/div&gt;&lt;div&gt;&lt;font style=&quot;font-size: 10px;&quot;&gt;Tasación&lt;/font&gt;&lt;/div&gt;" style="ellipse;whiteSpace=wrap;html=1;" vertex="1" parent="1">
          <mxGeometry x="610" y="65" width="70" height="30" as="geometry" />
        </mxCell>
        <mxCell id="4cM1UkZCm5Ez6TQwr9Vs-271" value="" style="edgeStyle=orthogonalEdgeStyle;rounded=0;orthogonalLoop=1;jettySize=auto;html=1;exitX=0.5;exitY=0;exitDx=0;exitDy=0;entryX=0.5;entryY=1;entryDx=0;entryDy=0;endArrow=none;endFill=0;" edge="1" parent="1" source="4cM1UkZCm5Ez6TQwr9Vs-253" target="4cM1UkZCm5Ez6TQwr9Vs-269">
          <mxGeometry relative="1" as="geometry">
            <mxPoint x="555" y="240" as="sourcePoint" />
            <mxPoint x="480" y="170" as="targetPoint" />
          </mxGeometry>
        </mxCell>
        <mxCell id="4cM1UkZCm5Ez6TQwr9Vs-269" value="d" style="ellipse;whiteSpace=wrap;html=1;aspect=fixed;" vertex="1" parent="1">
          <mxGeometry x="545" y="200" width="20" height="20" as="geometry" />
        </mxCell>
        <mxCell id="4cM1UkZCm5Ez6TQwr9Vs-274" value="1" style="text;html=1;align=center;verticalAlign=middle;resizable=0;points=[];autosize=1;strokeColor=none;fillColor=none;" vertex="1" parent="1">
          <mxGeometry x="170" y="120" width="30" height="30" as="geometry" />
        </mxCell>
        <mxCell id="4cM1UkZCm5Ez6TQwr9Vs-275" value="n" style="text;html=1;align=center;verticalAlign=middle;resizable=0;points=[];autosize=1;strokeColor=none;fillColor=none;" vertex="1" parent="1">
          <mxGeometry x="395" y="118" width="30" height="30" as="geometry" />
        </mxCell>
        <mxCell id="4cM1UkZCm5Ez6TQwr9Vs-279" style="edgeStyle=orthogonalEdgeStyle;rounded=0;orthogonalLoop=1;jettySize=auto;html=1;entryX=0;entryY=0.5;entryDx=0;entryDy=0;endArrow=none;endFill=0;" edge="1" parent="1" source="4cM1UkZCm5Ez6TQwr9Vs-277" target="4cM1UkZCm5Ez6TQwr9Vs-278">
          <mxGeometry relative="1" as="geometry" />
        </mxCell>
        <mxCell id="4cM1UkZCm5Ez6TQwr9Vs-277" value="tiene" style="rhombus;whiteSpace=wrap;html=1;" vertex="1" parent="1">
          <mxGeometry x="240" y="320" width="60" height="50" as="geometry" />
        </mxCell>
        <mxCell id="4cM1UkZCm5Ez6TQwr9Vs-284" style="edgeStyle=orthogonalEdgeStyle;rounded=0;orthogonalLoop=1;jettySize=auto;html=1;exitX=1;exitY=0.5;exitDx=0;exitDy=0;entryX=0;entryY=0.5;entryDx=0;entryDy=0;endArrow=none;endFill=0;" edge="1" parent="1" source="4cM1UkZCm5Ez6TQwr9Vs-278" target="4cM1UkZCm5Ez6TQwr9Vs-282">
          <mxGeometry relative="1" as="geometry" />
        </mxCell>
        <mxCell id="4cM1UkZCm5Ez6TQwr9Vs-278" value="Adicionales" style="rounded=0;whiteSpace=wrap;html=1;" vertex="1" parent="1">
          <mxGeometry x="355" y="320" width="110" height="50" as="geometry" />
        </mxCell>
        <mxCell id="4cM1UkZCm5Ez6TQwr9Vs-280" value="n" style="text;html=1;align=center;verticalAlign=middle;resizable=0;points=[];autosize=1;strokeColor=none;fillColor=none;" vertex="1" parent="1">
          <mxGeometry x="425" y="170" width="30" height="30" as="geometry" />
        </mxCell>
        <mxCell id="4cM1UkZCm5Ez6TQwr9Vs-281" value="m" style="text;html=1;align=center;verticalAlign=middle;resizable=0;points=[];autosize=1;strokeColor=none;fillColor=none;" vertex="1" parent="1">
          <mxGeometry x="325" y="320" width="30" height="30" as="geometry" />
        </mxCell>
        <mxCell id="4cM1UkZCm5Ez6TQwr9Vs-282" value="nombre" style="ellipse;whiteSpace=wrap;html=1;" vertex="1" parent="1">
          <mxGeometry x="510" y="330" width="70" height="30" as="geometry" />
        </mxCell>
        <mxCell id="4cM1UkZCm5Ez6TQwr9Vs-283" value="&lt;u&gt;descripción&lt;/u&gt;" style="ellipse;whiteSpace=wrap;html=1;" vertex="1" parent="1">
          <mxGeometry x="510" y="360" width="70" height="30" as="geometry" />
        </mxCell>
        <mxCell id="4cM1UkZCm5Ez6TQwr9Vs-293" style="edgeStyle=orthogonalEdgeStyle;rounded=0;orthogonalLoop=1;jettySize=auto;html=1;exitX=0.5;exitY=1;exitDx=0;exitDy=0;entryX=0.5;entryY=0;entryDx=0;entryDy=0;endArrow=none;endFill=0;" edge="1" parent="1" source="4cM1UkZCm5Ez6TQwr9Vs-286" target="4cM1UkZCm5Ez6TQwr9Vs-288">
          <mxGeometry relative="1" as="geometry" />
        </mxCell>
        <mxCell id="4cM1UkZCm5Ez6TQwr9Vs-286" value="Vendedor" style="rounded=0;whiteSpace=wrap;html=1;" vertex="1" parent="1">
          <mxGeometry x="60" y="260" width="110" height="50" as="geometry" />
        </mxCell>
        <mxCell id="4cM1UkZCm5Ez6TQwr9Vs-287" value="&lt;u&gt;dni&lt;/u&gt;" style="ellipse;whiteSpace=wrap;html=1;" vertex="1" parent="1">
          <mxGeometry x="80" y="370" width="70" height="30" as="geometry" />
        </mxCell>
        <mxCell id="4cM1UkZCm5Ez6TQwr9Vs-288" value="nombre" style="ellipse;whiteSpace=wrap;html=1;" vertex="1" parent="1">
          <mxGeometry x="80" y="340" width="70" height="30" as="geometry" />
        </mxCell>
        <mxCell id="4cM1UkZCm5Ez6TQwr9Vs-289" value="apellido" style="ellipse;whiteSpace=wrap;html=1;" vertex="1" parent="1">
          <mxGeometry x="150" y="340" width="70" height="30" as="geometry" />
        </mxCell>
        <mxCell id="4cM1UkZCm5Ez6TQwr9Vs-290" value="dirección" style="ellipse;whiteSpace=wrap;html=1;" vertex="1" parent="1">
          <mxGeometry x="10" y="340" width="70" height="30" as="geometry" />
        </mxCell>
        <mxCell id="4cM1UkZCm5Ez6TQwr9Vs-291" value="teléfono" style="ellipse;whiteSpace=wrap;html=1;" vertex="1" parent="1">
          <mxGeometry x="10" y="370" width="70" height="30" as="geometry" />
        </mxCell>
        <mxCell id="4cM1UkZCm5Ez6TQwr9Vs-295" style="edgeStyle=orthogonalEdgeStyle;rounded=0;orthogonalLoop=1;jettySize=auto;html=1;exitX=0.5;exitY=1;exitDx=0;exitDy=0;entryX=0.5;entryY=0;entryDx=0;entryDy=0;endArrow=none;endFill=0;" edge="1" parent="1" source="4cM1UkZCm5Ez6TQwr9Vs-294" target="4cM1UkZCm5Ez6TQwr9Vs-286">
          <mxGeometry relative="1" as="geometry" />
        </mxCell>
        <mxCell id="4cM1UkZCm5Ez6TQwr9Vs-310" style="edgeStyle=orthogonalEdgeStyle;rounded=0;orthogonalLoop=1;jettySize=auto;html=1;exitX=1;exitY=0.5;exitDx=0;exitDy=0;endArrow=none;endFill=0;entryX=0;entryY=0.5;entryDx=0;entryDy=0;" edge="1" parent="1" source="4cM1UkZCm5Ez6TQwr9Vs-294" target="4cM1UkZCm5Ez6TQwr9Vs-311">
          <mxGeometry relative="1" as="geometry">
            <mxPoint x="170" y="214.8571428571429" as="targetPoint" />
          </mxGeometry>
        </mxCell>
        <mxCell id="4cM1UkZCm5Ez6TQwr9Vs-294" value="atendido" style="rhombus;whiteSpace=wrap;html=1;" vertex="1" parent="1">
          <mxGeometry x="85" y="190" width="60" height="50" as="geometry" />
        </mxCell>
        <mxCell id="4cM1UkZCm5Ez6TQwr9Vs-297" value="n" style="text;html=1;align=center;verticalAlign=middle;resizable=0;points=[];autosize=1;strokeColor=none;fillColor=none;" vertex="1" parent="1">
          <mxGeometry x="110" y="160" width="30" height="30" as="geometry" />
        </mxCell>
        <mxCell id="4cM1UkZCm5Ez6TQwr9Vs-298" value="1" style="text;html=1;align=center;verticalAlign=middle;resizable=0;points=[];autosize=1;strokeColor=none;fillColor=none;" vertex="1" parent="1">
          <mxGeometry x="110" y="230" width="30" height="30" as="geometry" />
        </mxCell>
        <mxCell id="4cM1UkZCm5Ez6TQwr9Vs-309" style="edgeStyle=orthogonalEdgeStyle;rounded=0;orthogonalLoop=1;jettySize=auto;html=1;exitX=0.5;exitY=0;exitDx=0;exitDy=0;entryX=0.5;entryY=1;entryDx=0;entryDy=0;endArrow=none;endFill=0;" edge="1" parent="1" source="4cM1UkZCm5Ez6TQwr9Vs-299" target="4cM1UkZCm5Ez6TQwr9Vs-308">
          <mxGeometry relative="1" as="geometry" />
        </mxCell>
        <mxCell id="4cM1UkZCm5Ez6TQwr9Vs-299" value="cesa" style="rhombus;whiteSpace=wrap;html=1;" vertex="1" parent="1">
          <mxGeometry x="320" y="65" width="60" height="50" as="geometry" />
        </mxCell>
        <mxCell id="4cM1UkZCm5Ez6TQwr9Vs-300" style="edgeStyle=orthogonalEdgeStyle;rounded=0;orthogonalLoop=1;jettySize=auto;html=1;exitX=0.75;exitY=0;exitDx=0;exitDy=0;entryX=0;entryY=0.5;entryDx=0;entryDy=0;endArrow=none;endFill=0;" edge="1" parent="1" source="XrPNCrt0sU9ygLMACBDO-1" target="4cM1UkZCm5Ez6TQwr9Vs-299">
          <mxGeometry relative="1" as="geometry">
            <Array as="points">
              <mxPoint x="142" y="90" />
            </Array>
          </mxGeometry>
        </mxCell>
        <mxCell id="4cM1UkZCm5Ez6TQwr9Vs-301" style="edgeStyle=orthogonalEdgeStyle;rounded=0;orthogonalLoop=1;jettySize=auto;html=1;exitX=1;exitY=0.5;exitDx=0;exitDy=0;entryX=0;entryY=0;entryDx=0;entryDy=0;endArrow=none;endFill=0;" edge="1" parent="1" source="4cM1UkZCm5Ez6TQwr9Vs-299" target="4cM1UkZCm5Ez6TQwr9Vs-256">
          <mxGeometry relative="1" as="geometry">
            <mxPoint x="420" y="80" as="sourcePoint" />
            <mxPoint x="600" y="110" as="targetPoint" />
            <Array as="points">
              <mxPoint x="420" y="90" />
              <mxPoint x="420" y="20" />
              <mxPoint x="590" y="20" />
            </Array>
          </mxGeometry>
        </mxCell>
        <mxCell id="4cM1UkZCm5Ez6TQwr9Vs-304" value="n" style="text;html=1;align=center;verticalAlign=middle;resizable=0;points=[];autosize=1;strokeColor=none;fillColor=none;" vertex="1" parent="1">
          <mxGeometry x="580" y="90" width="30" height="30" as="geometry" />
        </mxCell>
        <mxCell id="4cM1UkZCm5Ez6TQwr9Vs-305" value="1" style="text;html=1;align=center;verticalAlign=middle;resizable=0;points=[];autosize=1;strokeColor=none;fillColor=none;" vertex="1" parent="1">
          <mxGeometry x="140" y="95" width="30" height="30" as="geometry" />
        </mxCell>
        <mxCell id="4cM1UkZCm5Ez6TQwr9Vs-308" value="fecha" style="ellipse;whiteSpace=wrap;html=1;" vertex="1" parent="1">
          <mxGeometry x="315" y="20" width="70" height="30" as="geometry" />
        </mxCell>
        <mxCell id="4cM1UkZCm5Ez6TQwr9Vs-311" value="fecha" style="ellipse;whiteSpace=wrap;html=1;" vertex="1" parent="1">
          <mxGeometry x="160" y="200" width="70" height="30" as="geometry" />
        </mxCell>
        <mxCell id="4cM1UkZCm5Ez6TQwr9Vs-312" value="fecha" style="ellipse;whiteSpace=wrap;html=1;" vertex="1" parent="1">
          <mxGeometry x="255" y="190" width="70" height="30" as="geometry" />
        </mxCell>
        <mxCell id="4cM1UkZCm5Ez6TQwr9Vs-315" value="&lt;u&gt;matrícula&lt;/u&gt;" style="ellipse;whiteSpace=wrap;html=1;" vertex="1" parent="1">
          <mxGeometry x="650" y="290" width="70" height="30" as="geometry" />
        </mxCell>
      </root>
    </mxGraphModel>
  </diagram>
</mxfile>
